<?xml version="1.0" encoding="UTF-8" standalone="no"?>
<!DOCTYPE svg PUBLIC "-//W3C//DTD SVG 1.1//EN" "http://www.w3.org/Graphics/SVG/1.1/DTD/svg11.dtd">
<!-- Created with Vectornator (http://vectornator.io/) -->
<svg height="100%" stroke-miterlimit="10" style="fill-rule:nonzero;clip-rule:evenodd;stroke-linecap:round;stroke-linejoin:round;" version="1.1" viewBox="774.257 821.321 1822.3 865.594" width="100%" xml:space="preserve" xmlns="http://www.w3.org/2000/svg" xmlns:vectornator="http://vectornator.io" xmlns:xlink="http://www.w3.org/1999/xlink">
<defs/>
<g id="Layer-1" vectornator:layerName="Layer 1">
<path d="M774.507 821.571L2596.31 821.571L2596.31 1686.66L774.507 1686.66L774.507 821.571Z" fill="#000000" fill-rule="nonzero" opacity="0.5" stroke="#000000" stroke-linecap="butt" stroke-linejoin="round" stroke-width="0.5" vectornator:layerName="Rectangle 1"/>
<g fill="#000000" opacity="0.5" stroke="none" vectornator:layerName="Text 1">
<path d="M1185.18 1216.87L1185.18 1254.12L1195.23 1254.12L1195.23 1216.87L1208.93 1216.87L1208.93 1208.42L1171.49 1208.42L1171.49 1216.87L1185.18 1216.87Z"/>
<path d="M1213.22 1208.42L1213.22 1254.12L1222.3 1254.12L1222.3 1236.77C1222.3 1233.4 1222.86 1230.98 1223.97 1229.51C1225.08 1228.04 1226.87 1227.3 1229.34 1227.3C1231.52 1227.3 1233.03 1227.97 1233.89 1229.32C1234.74 1230.66 1235.17 1232.7 1235.17 1235.43L1235.17 1254.12L1244.26 1254.12L1244.26 1233.77C1244.26 1231.72 1244.07 1229.85 1243.71 1228.17C1243.35 1226.48 1242.72 1225.05 1241.82 1223.88C1240.93 1222.7 1239.7 1221.79 1238.14 1221.13C1236.59 1220.46 1234.59 1220.13 1232.16 1220.13C1230.45 1220.13 1228.7 1220.57 1226.91 1221.45C1225.12 1222.32 1223.65 1223.72 1222.5 1225.64L1222.3 1225.64L1222.3 1208.42L1213.22 1208.42Z"/>
<path d="M1260.51 1215.91L1260.51 1208.42L1251.42 1208.42L1251.42 1215.91L1260.51 1215.91ZM1251.42 1221.03L1251.42 1254.12L1260.51 1254.12L1260.51 1221.03L1251.42 1221.03Z"/>
<path d="M1274.72 1243.37L1266.08 1243.37C1266.16 1245.58 1266.67 1247.43 1267.58 1248.9C1268.5 1250.37 1269.67 1251.56 1271.1 1252.45C1272.53 1253.35 1274.16 1253.99 1276 1254.37C1277.83 1254.76 1279.71 1254.95 1281.63 1254.95C1283.51 1254.95 1285.35 1254.77 1287.17 1254.41C1288.98 1254.04 1290.59 1253.41 1292 1252.52C1293.41 1251.62 1294.55 1250.44 1295.42 1248.97C1296.3 1247.49 1296.74 1245.67 1296.74 1243.49C1296.74 1241.96 1296.44 1240.67 1295.84 1239.62C1295.24 1238.58 1294.45 1237.7 1293.47 1237C1292.49 1236.29 1291.37 1235.73 1290.11 1235.3C1288.85 1234.87 1287.56 1234.51 1286.24 1234.21C1284.96 1233.91 1283.7 1233.64 1282.46 1233.38C1281.23 1233.13 1280.13 1232.84 1279.17 1232.52C1278.21 1232.2 1277.43 1231.78 1276.83 1231.27C1276.23 1230.76 1275.94 1230.1 1275.94 1229.29C1275.94 1228.6 1276.11 1228.06 1276.45 1227.65C1276.79 1227.25 1277.2 1226.94 1277.7 1226.73C1278.19 1226.51 1278.73 1226.37 1279.33 1226.31C1279.92 1226.25 1280.48 1226.21 1280.99 1226.21C1282.61 1226.21 1284.02 1226.52 1285.22 1227.14C1286.41 1227.76 1287.07 1228.94 1287.2 1230.69L1295.84 1230.69C1295.67 1228.65 1295.15 1226.95 1294.27 1225.61C1293.4 1224.26 1292.3 1223.18 1290.98 1222.37C1289.65 1221.56 1288.15 1220.99 1286.46 1220.65C1284.78 1220.3 1283.04 1220.13 1281.25 1220.13C1279.46 1220.13 1277.71 1220.29 1276 1220.61C1274.29 1220.93 1272.76 1221.49 1271.39 1222.28C1270.03 1223.07 1268.93 1224.14 1268.1 1225.51C1267.26 1226.87 1266.85 1228.62 1266.85 1230.76C1266.85 1232.21 1267.15 1233.43 1267.74 1234.44C1268.34 1235.44 1269.13 1236.27 1270.11 1236.93C1271.09 1237.59 1272.21 1238.13 1273.47 1238.53C1274.73 1238.94 1276.02 1239.29 1277.34 1239.59C1280.59 1240.27 1283.11 1240.95 1284.93 1241.64C1286.74 1242.32 1287.65 1243.34 1287.65 1244.71C1287.65 1245.52 1287.46 1246.19 1287.07 1246.73C1286.69 1247.26 1286.21 1247.69 1285.63 1248.01C1285.06 1248.33 1284.42 1248.56 1283.71 1248.71C1283.01 1248.86 1282.34 1248.93 1281.7 1248.93C1280.8 1248.93 1279.94 1248.83 1279.1 1248.61C1278.27 1248.4 1277.54 1248.07 1276.9 1247.62C1276.26 1247.17 1275.73 1246.6 1275.33 1245.89C1274.92 1245.19 1274.72 1244.35 1274.72 1243.37Z"/>
<path d="M1329.18 1215.91L1329.18 1208.42L1320.1 1208.42L1320.1 1215.91L1329.18 1215.91ZM1320.1 1221.03L1320.1 1254.12L1329.18 1254.12L1329.18 1221.03L1320.1 1221.03Z"/>
<path d="M1343.39 1243.37L1334.75 1243.37C1334.84 1245.58 1335.34 1247.43 1336.26 1248.9C1337.17 1250.37 1338.35 1251.56 1339.78 1252.45C1341.2 1253.35 1342.84 1253.99 1344.67 1254.37C1346.51 1254.76 1348.38 1254.95 1350.3 1254.95C1352.18 1254.95 1354.03 1254.77 1355.84 1254.41C1357.65 1254.04 1359.26 1253.41 1360.67 1252.52C1362.08 1251.62 1363.22 1250.44 1364.1 1248.97C1364.97 1247.49 1365.41 1245.67 1365.41 1243.49C1365.41 1241.96 1365.11 1240.67 1364.51 1239.62C1363.91 1238.58 1363.12 1237.7 1362.14 1237C1361.16 1236.29 1360.04 1235.73 1358.78 1235.3C1357.52 1234.87 1356.23 1234.51 1354.91 1234.21C1353.63 1233.91 1352.37 1233.64 1351.14 1233.38C1349.9 1233.13 1348.8 1232.84 1347.84 1232.52C1346.88 1232.2 1346.1 1231.78 1345.5 1231.27C1344.91 1230.76 1344.61 1230.1 1344.61 1229.29C1344.61 1228.6 1344.78 1228.06 1345.12 1227.65C1345.46 1227.25 1345.88 1226.94 1346.37 1226.73C1346.86 1226.51 1347.4 1226.37 1348 1226.31C1348.6 1226.25 1349.15 1226.21 1349.66 1226.21C1351.28 1226.21 1352.69 1226.52 1353.89 1227.14C1355.08 1227.76 1355.74 1228.94 1355.87 1230.69L1364.51 1230.69C1364.34 1228.65 1363.82 1226.95 1362.94 1225.61C1362.07 1224.26 1360.97 1223.18 1359.65 1222.37C1358.32 1221.56 1356.82 1220.99 1355.14 1220.65C1353.45 1220.3 1351.71 1220.13 1349.92 1220.13C1348.13 1220.13 1346.38 1220.29 1344.67 1220.61C1342.96 1220.93 1341.43 1221.49 1340.06 1222.28C1338.7 1223.07 1337.6 1224.14 1336.77 1225.51C1335.94 1226.87 1335.52 1228.62 1335.52 1230.76C1335.52 1232.21 1335.82 1233.43 1336.42 1234.44C1337.01 1235.44 1337.8 1236.27 1338.78 1236.93C1339.76 1237.59 1340.88 1238.13 1342.14 1238.53C1343.4 1238.94 1344.69 1239.29 1346.02 1239.59C1349.26 1240.27 1351.79 1240.95 1353.6 1241.64C1355.41 1242.32 1356.32 1243.34 1356.32 1244.71C1356.32 1245.52 1356.13 1246.19 1355.74 1246.73C1355.36 1247.26 1354.88 1247.69 1354.3 1248.01C1353.73 1248.33 1353.09 1248.56 1352.38 1248.71C1351.68 1248.86 1351.01 1248.93 1350.37 1248.93C1349.47 1248.93 1348.61 1248.83 1347.78 1248.61C1346.94 1248.4 1346.21 1248.07 1345.57 1247.62C1344.93 1247.17 1344.4 1246.6 1344 1245.89C1343.59 1245.19 1343.39 1244.35 1343.39 1243.37Z"/>
<path d="M1388.13 1231.21C1388.26 1229.07 1388.79 1227.3 1389.73 1225.89C1390.67 1224.49 1391.86 1223.35 1393.31 1222.5C1394.76 1221.65 1396.39 1221.04 1398.21 1220.68C1400.02 1220.31 1401.84 1220.13 1403.68 1220.13C1405.34 1220.13 1407.03 1220.25 1408.74 1220.49C1410.44 1220.72 1412 1221.18 1413.41 1221.86C1414.82 1222.54 1415.97 1223.49 1416.86 1224.71C1417.76 1225.93 1418.21 1227.54 1418.21 1229.54L1418.21 1246.76C1418.21 1248.25 1418.29 1249.68 1418.46 1251.05C1418.63 1252.41 1418.93 1253.43 1419.36 1254.12L1410.14 1254.12C1409.97 1253.61 1409.83 1253.08 1409.73 1252.55C1409.62 1252.02 1409.55 1251.47 1409.5 1250.92C1408.05 1252.41 1406.35 1253.46 1404.38 1254.05C1402.42 1254.65 1400.42 1254.95 1398.37 1254.95C1396.79 1254.95 1395.32 1254.76 1393.95 1254.37C1392.59 1253.99 1391.39 1253.39 1390.37 1252.58C1389.34 1251.77 1388.54 1250.75 1387.97 1249.51C1387.39 1248.27 1387.1 1246.8 1387.1 1245.09C1387.1 1243.22 1387.43 1241.67 1388.1 1240.45C1388.76 1239.24 1389.61 1238.27 1390.66 1237.54C1391.7 1236.82 1392.9 1236.27 1394.24 1235.91C1395.58 1235.55 1396.94 1235.26 1398.3 1235.05C1399.67 1234.83 1401.01 1234.66 1402.34 1234.53C1403.66 1234.41 1404.83 1234.21 1405.86 1233.96C1406.88 1233.7 1407.69 1233.33 1408.29 1232.84C1408.88 1232.35 1409.16 1231.63 1409.12 1230.69C1409.12 1229.71 1408.96 1228.93 1408.64 1228.36C1408.32 1227.78 1407.89 1227.33 1407.36 1227.01C1406.83 1226.69 1406.21 1226.48 1405.5 1226.37C1404.8 1226.27 1404.04 1226.21 1403.23 1226.21C1401.44 1226.21 1400.03 1226.6 1399.01 1227.37C1397.98 1228.13 1397.39 1229.41 1397.22 1231.21L1388.13 1231.21ZM1409.12 1237.93C1408.74 1238.27 1408.26 1238.53 1407.68 1238.73C1407.1 1238.92 1406.48 1239.08 1405.82 1239.21C1405.16 1239.33 1404.47 1239.44 1403.74 1239.53C1403.02 1239.61 1402.29 1239.72 1401.57 1239.85C1400.88 1239.97 1400.21 1240.14 1399.55 1240.36C1398.89 1240.57 1398.31 1240.86 1397.82 1241.22C1397.33 1241.58 1396.94 1242.04 1396.64 1242.6C1396.34 1243.15 1396.19 1243.86 1396.19 1244.71C1396.19 1245.52 1396.34 1246.2 1396.64 1246.76C1396.94 1247.31 1397.34 1247.75 1397.86 1248.07C1398.37 1248.39 1398.96 1248.61 1399.65 1248.74C1400.33 1248.87 1401.03 1248.93 1401.76 1248.93C1403.55 1248.93 1404.94 1248.63 1405.92 1248.04C1406.9 1247.44 1407.63 1246.73 1408.1 1245.89C1408.56 1245.06 1408.85 1244.22 1408.96 1243.37C1409.07 1242.51 1409.12 1241.83 1409.12 1241.32L1409.12 1237.93Z"/>
<path d="M1459.74 1248.17C1458.29 1248.17 1457.06 1247.87 1456.03 1247.27C1455.01 1246.67 1454.19 1245.89 1453.57 1244.93C1452.95 1243.97 1452.5 1242.85 1452.22 1241.57C1451.95 1240.29 1451.81 1238.99 1451.81 1237.67C1451.81 1236.3 1451.94 1234.98 1452.19 1233.7C1452.45 1232.42 1452.88 1231.29 1453.5 1230.31C1454.12 1229.33 1454.93 1228.53 1455.94 1227.91C1456.94 1227.29 1458.19 1226.98 1459.68 1226.98C1461.13 1226.98 1462.36 1227.29 1463.36 1227.91C1464.36 1228.53 1465.18 1229.34 1465.82 1230.34C1466.46 1231.34 1466.92 1232.49 1467.2 1233.77C1467.48 1235.05 1467.62 1236.35 1467.62 1237.67C1467.62 1238.99 1467.49 1240.29 1467.23 1241.57C1466.98 1242.85 1466.54 1243.97 1465.92 1244.93C1465.3 1245.89 1464.49 1246.67 1463.49 1247.27C1462.48 1247.87 1461.24 1248.17 1459.74 1248.17ZM1443.04 1221.03L1443.04 1265.7L1452.13 1265.7L1452.13 1250.02L1452.26 1250.02C1453.36 1251.64 1454.78 1252.87 1456.51 1253.7C1458.24 1254.53 1460.13 1254.95 1462.18 1254.95C1464.61 1254.95 1466.73 1254.48 1468.54 1253.54C1470.36 1252.6 1471.87 1251.34 1473.09 1249.77C1474.3 1248.19 1475.21 1246.37 1475.81 1244.33C1476.4 1242.28 1476.7 1240.14 1476.7 1237.93C1476.7 1235.58 1476.4 1233.33 1475.81 1231.17C1475.21 1229.02 1474.29 1227.13 1473.06 1225.51C1471.82 1223.89 1470.26 1222.59 1468.38 1221.61C1466.51 1220.62 1464.27 1220.13 1461.66 1220.13C1459.62 1220.13 1457.74 1220.54 1456.03 1221.35C1454.32 1222.16 1452.92 1223.46 1451.81 1225.25L1451.68 1225.25L1451.68 1221.03L1443.04 1221.03Z"/>
<path d="M1482.4 1208.42L1482.4 1254.12L1491.49 1254.12L1491.49 1208.42L1482.4 1208.42Z"/>
<path d="M1498.27 1231.21C1498.4 1229.07 1498.93 1227.3 1499.87 1225.89C1500.81 1224.49 1502 1223.35 1503.46 1222.5C1504.91 1221.65 1506.54 1221.04 1508.35 1220.68C1510.16 1220.31 1511.99 1220.13 1513.82 1220.13C1515.49 1220.13 1517.17 1220.25 1518.88 1220.49C1520.59 1220.72 1522.14 1221.18 1523.55 1221.86C1524.96 1222.54 1526.11 1223.49 1527.01 1224.71C1527.9 1225.93 1528.35 1227.54 1528.35 1229.54L1528.35 1246.76C1528.35 1248.25 1528.44 1249.68 1528.61 1251.05C1528.78 1252.41 1529.08 1253.43 1529.5 1254.12L1520.29 1254.12C1520.12 1253.61 1519.98 1253.08 1519.87 1252.55C1519.76 1252.02 1519.69 1251.47 1519.65 1250.92C1518.2 1252.41 1516.49 1253.46 1514.53 1254.05C1512.56 1254.65 1510.56 1254.95 1508.51 1254.95C1506.93 1254.95 1505.46 1254.76 1504.1 1254.37C1502.73 1253.99 1501.54 1253.39 1500.51 1252.58C1499.49 1251.77 1498.69 1250.75 1498.11 1249.51C1497.54 1248.27 1497.25 1246.8 1497.25 1245.09C1497.25 1243.22 1497.58 1241.67 1498.24 1240.45C1498.9 1239.24 1499.75 1238.27 1500.8 1237.54C1501.84 1236.82 1503.04 1236.27 1504.38 1235.91C1505.73 1235.55 1507.08 1235.26 1508.45 1235.05C1509.81 1234.83 1511.16 1234.66 1512.48 1234.53C1513.8 1234.41 1514.98 1234.21 1516 1233.96C1517.02 1233.7 1517.83 1233.33 1518.43 1232.84C1519.03 1232.35 1519.31 1231.63 1519.26 1230.69C1519.26 1229.71 1519.1 1228.93 1518.78 1228.36C1518.46 1227.78 1518.04 1227.33 1517.5 1227.01C1516.97 1226.69 1516.35 1226.48 1515.65 1226.37C1514.94 1226.27 1514.19 1226.21 1513.38 1226.21C1511.58 1226.21 1510.18 1226.6 1509.15 1227.37C1508.13 1228.13 1507.53 1229.41 1507.36 1231.21L1498.27 1231.21ZM1519.26 1237.93C1518.88 1238.27 1518.4 1238.53 1517.82 1238.73C1517.25 1238.92 1516.63 1239.08 1515.97 1239.21C1515.31 1239.33 1514.61 1239.44 1513.89 1239.53C1513.16 1239.61 1512.44 1239.72 1511.71 1239.85C1511.03 1239.97 1510.36 1240.14 1509.7 1240.36C1509.03 1240.57 1508.46 1240.86 1507.97 1241.22C1507.48 1241.58 1507.08 1242.04 1506.78 1242.6C1506.48 1243.15 1506.34 1243.86 1506.34 1244.71C1506.34 1245.52 1506.48 1246.2 1506.78 1246.76C1507.08 1247.31 1507.49 1247.75 1508 1248.07C1508.51 1248.39 1509.11 1248.61 1509.79 1248.74C1510.47 1248.87 1511.18 1248.93 1511.9 1248.93C1513.7 1248.93 1515.08 1248.63 1516.06 1248.04C1517.04 1247.44 1517.77 1246.73 1518.24 1245.89C1518.71 1245.06 1519 1244.22 1519.1 1243.37C1519.21 1242.51 1519.26 1241.83 1519.26 1241.32L1519.26 1237.93Z"/>
<path d="M1557.92 1232.68L1566.82 1232.68C1566.69 1230.54 1566.18 1228.7 1565.28 1227.14C1564.38 1225.58 1563.22 1224.28 1561.79 1223.24C1560.36 1222.19 1558.74 1221.41 1556.93 1220.9C1555.11 1220.39 1553.23 1220.13 1551.26 1220.13C1548.58 1220.13 1546.19 1220.58 1544.1 1221.48C1542 1222.37 1540.23 1223.62 1538.78 1225.22C1537.33 1226.82 1536.23 1228.72 1535.49 1230.92C1534.74 1233.11 1534.37 1235.49 1534.37 1238.05C1534.37 1240.53 1534.77 1242.8 1535.58 1244.87C1536.39 1246.94 1537.52 1248.72 1538.98 1250.21C1540.43 1251.71 1542.19 1252.87 1544.26 1253.7C1546.32 1254.53 1548.6 1254.95 1551.07 1254.95C1555.47 1254.95 1559.07 1253.8 1561.89 1251.49C1564.7 1249.19 1566.41 1245.84 1567.01 1241.45L1558.24 1241.45C1557.94 1243.49 1557.2 1245.13 1556.03 1246.34C1554.86 1247.56 1553.18 1248.17 1551.01 1248.17C1549.6 1248.17 1548.4 1247.85 1547.42 1247.21C1546.44 1246.57 1545.66 1245.74 1545.09 1244.74C1544.51 1243.74 1544.1 1242.62 1543.84 1241.38C1543.58 1240.14 1543.46 1238.93 1543.46 1237.73C1543.46 1236.5 1543.58 1235.25 1543.84 1233.99C1544.1 1232.73 1544.53 1231.58 1545.15 1230.53C1545.77 1229.49 1546.57 1228.63 1547.55 1227.97C1548.53 1227.31 1549.75 1226.98 1551.2 1226.98C1555.08 1226.98 1557.32 1228.88 1557.92 1232.68Z"/>
<path d="M1594.4 1234.02L1579.62 1234.02C1579.66 1233.38 1579.8 1232.66 1580.03 1231.85C1580.27 1231.03 1580.67 1230.27 1581.25 1229.54C1581.82 1228.82 1582.59 1228.21 1583.55 1227.72C1584.51 1227.23 1585.72 1226.98 1587.17 1226.98C1589.39 1226.98 1591.04 1227.58 1592.13 1228.77C1593.22 1229.97 1593.97 1231.72 1594.4 1234.02ZM1579.62 1239.78L1603.49 1239.78C1603.66 1237.22 1603.44 1234.77 1602.85 1232.42C1602.25 1230.07 1601.28 1227.98 1599.94 1226.15C1598.59 1224.31 1596.87 1222.85 1594.78 1221.77C1592.69 1220.68 1590.24 1220.13 1587.42 1220.13C1584.91 1220.13 1582.61 1220.58 1580.54 1221.48C1578.47 1222.37 1576.69 1223.6 1575.2 1225.16C1573.71 1226.71 1572.55 1228.56 1571.74 1230.69C1570.93 1232.83 1570.53 1235.13 1570.53 1237.61C1570.53 1240.17 1570.92 1242.51 1571.71 1244.65C1572.5 1246.78 1573.62 1248.61 1575.07 1250.15C1576.52 1251.69 1578.29 1252.87 1580.38 1253.7C1582.47 1254.53 1584.82 1254.95 1587.42 1254.95C1591.18 1254.95 1594.38 1254.1 1597.02 1252.39C1599.67 1250.68 1601.63 1247.85 1602.91 1243.88L1594.91 1243.88C1594.61 1244.9 1593.8 1245.87 1592.48 1246.79C1591.16 1247.71 1589.58 1248.17 1587.74 1248.17C1585.18 1248.17 1583.22 1247.5 1581.86 1246.18C1580.49 1244.86 1579.74 1242.73 1579.62 1239.78Z"/>
<path d="M1608.86 1208.42L1608.86 1254.12L1617.95 1254.12L1617.95 1236.77C1617.95 1233.4 1618.51 1230.98 1619.62 1229.51C1620.72 1228.04 1622.52 1227.3 1624.99 1227.3C1627.17 1227.3 1628.68 1227.97 1629.54 1229.32C1630.39 1230.66 1630.82 1232.7 1630.82 1235.43L1630.82 1254.12L1639.9 1254.12L1639.9 1233.77C1639.9 1231.72 1639.72 1229.85 1639.36 1228.17C1639 1226.48 1638.37 1225.05 1637.47 1223.88C1636.58 1222.7 1635.35 1221.79 1633.79 1221.13C1632.23 1220.46 1630.24 1220.13 1627.81 1220.13C1626.1 1220.13 1624.35 1220.57 1622.56 1221.45C1620.77 1222.32 1619.3 1223.72 1618.14 1225.64L1617.95 1225.64L1617.95 1208.42L1608.86 1208.42Z"/>
<path d="M1654.88 1237.61C1654.88 1236.28 1655.01 1234.98 1655.26 1233.7C1655.52 1232.42 1655.96 1231.29 1656.58 1230.31C1657.19 1229.33 1658.02 1228.53 1659.04 1227.91C1660.06 1227.29 1661.34 1226.98 1662.88 1226.98C1664.42 1226.98 1665.71 1227.29 1666.75 1227.91C1667.8 1228.53 1668.63 1229.33 1669.25 1230.31C1669.87 1231.29 1670.3 1232.42 1670.56 1233.7C1670.82 1234.98 1670.94 1236.28 1670.94 1237.61C1670.94 1238.93 1670.82 1240.22 1670.56 1241.48C1670.3 1242.74 1669.87 1243.87 1669.25 1244.87C1668.63 1245.87 1667.8 1246.67 1666.75 1247.27C1665.71 1247.87 1664.42 1248.17 1662.88 1248.17C1661.34 1248.17 1660.06 1247.87 1659.04 1247.27C1658.02 1246.67 1657.19 1245.87 1656.58 1244.87C1655.96 1243.87 1655.52 1242.74 1655.26 1241.48C1655.01 1240.22 1654.88 1238.93 1654.88 1237.61ZM1645.79 1237.61C1645.79 1240.25 1646.2 1242.64 1647.01 1244.77C1647.82 1246.91 1648.97 1248.73 1650.46 1250.25C1651.96 1251.76 1653.75 1252.92 1655.84 1253.73C1657.93 1254.54 1660.28 1254.95 1662.88 1254.95C1665.48 1254.95 1667.84 1254.54 1669.95 1253.73C1672.06 1252.92 1673.87 1251.76 1675.36 1250.25C1676.85 1248.73 1678 1246.91 1678.82 1244.77C1679.63 1242.64 1680.03 1240.25 1680.03 1237.61C1680.03 1234.96 1679.63 1232.56 1678.82 1230.41C1678 1228.25 1676.85 1226.42 1675.36 1224.9C1673.87 1223.39 1672.06 1222.21 1669.95 1221.38C1667.84 1220.55 1665.48 1220.13 1662.88 1220.13C1660.28 1220.13 1657.93 1220.55 1655.84 1221.38C1653.75 1222.21 1651.96 1223.39 1650.46 1224.9C1648.97 1226.42 1647.82 1228.25 1647.01 1230.41C1646.2 1232.56 1645.79 1234.96 1645.79 1237.61Z"/>
<path d="M1686.18 1208.42L1686.18 1254.12L1695.26 1254.12L1695.26 1208.42L1686.18 1208.42Z"/>
<path d="M1725.92 1237.48C1725.92 1238.84 1725.79 1240.17 1725.54 1241.45C1725.28 1242.73 1724.85 1243.87 1724.26 1244.87C1723.66 1245.87 1722.86 1246.67 1721.86 1247.27C1720.85 1247.87 1719.6 1248.17 1718.11 1248.17C1716.7 1248.17 1715.5 1247.86 1714.5 1247.24C1713.49 1246.62 1712.66 1245.81 1712 1244.81C1711.34 1243.8 1710.86 1242.66 1710.56 1241.38C1710.26 1240.1 1710.11 1238.82 1710.11 1237.54C1710.11 1236.18 1710.25 1234.86 1710.53 1233.61C1710.8 1232.35 1711.25 1231.23 1711.87 1230.25C1712.49 1229.26 1713.31 1228.47 1714.34 1227.88C1715.36 1227.28 1716.62 1226.98 1718.11 1226.98C1719.6 1226.98 1720.84 1227.28 1721.82 1227.88C1722.8 1228.47 1723.6 1229.25 1724.22 1230.21C1724.84 1231.17 1725.28 1232.28 1725.54 1233.54C1725.79 1234.8 1725.92 1236.11 1725.92 1237.48ZM1726.05 1249.89L1726.05 1254.12L1734.69 1254.12L1734.69 1208.42L1725.6 1208.42L1725.6 1225.06L1725.47 1225.06C1724.45 1223.44 1723.05 1222.21 1721.28 1221.38C1719.51 1220.55 1717.64 1220.13 1715.68 1220.13C1713.25 1220.13 1711.11 1220.61 1709.28 1221.57C1707.44 1222.53 1705.92 1223.8 1704.7 1225.38C1703.49 1226.96 1702.57 1228.78 1701.95 1230.85C1701.33 1232.92 1701.02 1235.07 1701.02 1237.29C1701.02 1239.59 1701.33 1241.81 1701.95 1243.94C1702.57 1246.07 1703.49 1247.96 1704.7 1249.61C1705.92 1251.25 1707.47 1252.55 1709.34 1253.51C1711.22 1254.47 1713.4 1254.95 1715.87 1254.95C1718.05 1254.95 1720 1254.55 1721.73 1253.77C1723.46 1252.98 1724.85 1251.69 1725.92 1249.89L1726.05 1249.89Z"/>
<path d="M1763.81 1234.02L1749.02 1234.02C1749.07 1233.38 1749.2 1232.66 1749.44 1231.85C1749.67 1231.03 1750.08 1230.27 1750.66 1229.54C1751.23 1228.82 1752 1228.21 1752.96 1227.72C1753.92 1227.23 1755.12 1226.98 1756.58 1226.98C1758.79 1226.98 1760.45 1227.58 1761.54 1228.77C1762.62 1229.97 1763.38 1231.72 1763.81 1234.02ZM1749.02 1239.78L1772.9 1239.78C1773.07 1237.22 1772.85 1234.77 1772.26 1232.42C1771.66 1230.07 1770.69 1227.98 1769.34 1226.15C1768 1224.31 1766.28 1222.85 1764.19 1221.77C1762.1 1220.68 1759.65 1220.13 1756.83 1220.13C1754.31 1220.13 1752.02 1220.58 1749.95 1221.48C1747.88 1222.37 1746.1 1223.6 1744.61 1225.16C1743.11 1226.71 1741.96 1228.56 1741.15 1230.69C1740.34 1232.83 1739.94 1235.13 1739.94 1237.61C1739.94 1240.17 1740.33 1242.51 1741.12 1244.65C1741.91 1246.78 1743.03 1248.61 1744.48 1250.15C1745.93 1251.69 1747.7 1252.87 1749.79 1253.7C1751.88 1254.53 1754.23 1254.95 1756.83 1254.95C1760.59 1254.95 1763.79 1254.1 1766.43 1252.39C1769.08 1250.68 1771.04 1247.85 1772.32 1243.88L1764.32 1243.88C1764.02 1244.9 1763.21 1245.87 1761.89 1246.79C1760.56 1247.71 1758.99 1248.17 1757.15 1248.17C1754.59 1248.17 1752.63 1247.5 1751.26 1246.18C1749.9 1244.86 1749.15 1242.73 1749.02 1239.78Z"/>
<path d="M1778.27 1221.03L1778.27 1254.12L1787.36 1254.12L1787.36 1239.21C1787.36 1237.71 1787.51 1236.33 1787.81 1235.05C1788.11 1233.77 1788.61 1232.65 1789.31 1231.69C1790.02 1230.73 1790.94 1229.97 1792.1 1229.41C1793.25 1228.86 1794.66 1228.58 1796.32 1228.58C1796.87 1228.58 1797.45 1228.61 1798.05 1228.68C1798.64 1228.74 1799.16 1228.82 1799.58 1228.9L1799.58 1220.45C1798.86 1220.24 1798.2 1220.13 1797.6 1220.13C1796.45 1220.13 1795.34 1220.3 1794.27 1220.65C1793.2 1220.99 1792.2 1221.47 1791.26 1222.09C1790.32 1222.7 1789.49 1223.45 1788.77 1224.33C1788.04 1225.2 1787.47 1226.15 1787.04 1227.17L1786.91 1227.17L1786.91 1221.03L1778.27 1221.03Z"/>
<path d="M1822.94 1227.11L1822.94 1254.12L1832.03 1254.12L1832.03 1227.11L1838.3 1227.11L1838.3 1221.03L1832.03 1221.03L1832.03 1219.05C1832.03 1217.68 1832.3 1216.71 1832.83 1216.13C1833.36 1215.56 1834.25 1215.27 1835.49 1215.27C1836.64 1215.27 1837.75 1215.33 1838.82 1215.46L1838.82 1208.68C1838.05 1208.63 1837.26 1208.58 1836.45 1208.52C1835.64 1208.45 1834.83 1208.42 1834.02 1208.42C1830.3 1208.42 1827.53 1209.36 1825.7 1211.24C1823.86 1213.11 1822.94 1215.53 1822.94 1218.47L1822.94 1221.03L1817.5 1221.03L1817.5 1227.11L1822.94 1227.11Z"/>
<path d="M1850.34 1237.61C1850.34 1236.28 1850.46 1234.98 1850.72 1233.7C1850.98 1232.42 1851.41 1231.29 1852.03 1230.31C1852.65 1229.33 1853.47 1228.53 1854.5 1227.91C1855.52 1227.29 1856.8 1226.98 1858.34 1226.98C1859.87 1226.98 1861.16 1227.29 1862.21 1227.91C1863.25 1228.53 1864.08 1229.33 1864.7 1230.31C1865.32 1231.29 1865.76 1232.42 1866.02 1233.7C1866.27 1234.98 1866.4 1236.28 1866.4 1237.61C1866.4 1238.93 1866.27 1240.22 1866.02 1241.48C1865.76 1242.74 1865.32 1243.87 1864.7 1244.87C1864.08 1245.87 1863.25 1246.67 1862.21 1247.27C1861.16 1247.87 1859.87 1248.17 1858.34 1248.17C1856.8 1248.17 1855.52 1247.87 1854.5 1247.27C1853.47 1246.67 1852.65 1245.87 1852.03 1244.87C1851.41 1243.87 1850.98 1242.74 1850.72 1241.48C1850.46 1240.22 1850.34 1238.93 1850.34 1237.61ZM1841.25 1237.61C1841.25 1240.25 1841.65 1242.64 1842.46 1244.77C1843.27 1246.91 1844.43 1248.73 1845.92 1250.25C1847.41 1251.76 1849.2 1252.92 1851.3 1253.73C1853.39 1254.54 1855.73 1254.95 1858.34 1254.95C1860.94 1254.95 1863.3 1254.54 1865.41 1253.73C1867.52 1252.92 1869.32 1251.76 1870.82 1250.25C1872.31 1248.73 1873.46 1246.91 1874.27 1244.77C1875.08 1242.64 1875.49 1240.25 1875.49 1237.61C1875.49 1234.96 1875.08 1232.56 1874.27 1230.41C1873.46 1228.25 1872.31 1226.42 1870.82 1224.9C1869.32 1223.39 1867.52 1222.21 1865.41 1221.38C1863.3 1220.55 1860.94 1220.13 1858.34 1220.13C1855.73 1220.13 1853.39 1220.55 1851.3 1221.38C1849.2 1222.21 1847.41 1223.39 1845.92 1224.9C1844.43 1226.42 1843.27 1228.25 1842.46 1230.41C1841.65 1232.56 1841.25 1234.96 1841.25 1237.61Z"/>
<path d="M1881.38 1221.03L1881.38 1254.12L1890.46 1254.12L1890.46 1239.21C1890.46 1237.71 1890.61 1236.33 1890.91 1235.05C1891.21 1233.77 1891.71 1232.65 1892.42 1231.69C1893.12 1230.73 1894.05 1229.97 1895.2 1229.41C1896.35 1228.86 1897.76 1228.58 1899.42 1228.58C1899.98 1228.58 1900.55 1228.61 1901.15 1228.68C1901.75 1228.74 1902.26 1228.82 1902.69 1228.9L1902.69 1220.45C1901.96 1220.24 1901.3 1220.13 1900.7 1220.13C1899.55 1220.13 1898.44 1220.3 1897.38 1220.65C1896.31 1220.99 1895.31 1221.47 1894.37 1222.09C1893.43 1222.7 1892.6 1223.45 1891.87 1224.33C1891.15 1225.2 1890.57 1226.15 1890.14 1227.17L1890.02 1227.17L1890.02 1221.03L1881.38 1221.03Z"/>
<path d="M1923.68 1231.21C1923.81 1229.07 1924.34 1227.3 1925.28 1225.89C1926.22 1224.49 1927.41 1223.35 1928.86 1222.5C1930.31 1221.65 1931.95 1221.04 1933.76 1220.68C1935.57 1220.31 1937.4 1220.13 1939.23 1220.13C1940.9 1220.13 1942.58 1220.25 1944.29 1220.49C1945.99 1220.72 1947.55 1221.18 1948.96 1221.86C1950.37 1222.54 1951.52 1223.49 1952.42 1224.71C1953.31 1225.93 1953.76 1227.54 1953.76 1229.54L1953.76 1246.76C1953.76 1248.25 1953.84 1249.68 1954.02 1251.05C1954.19 1252.41 1954.48 1253.43 1954.91 1254.12L1945.7 1254.12C1945.52 1253.61 1945.39 1253.08 1945.28 1252.55C1945.17 1252.02 1945.1 1251.47 1945.06 1250.92C1943.6 1252.41 1941.9 1253.46 1939.94 1254.05C1937.97 1254.65 1935.97 1254.95 1933.92 1254.95C1932.34 1254.95 1930.87 1254.76 1929.5 1254.37C1928.14 1253.99 1926.94 1253.39 1925.92 1252.58C1924.9 1251.77 1924.1 1250.75 1923.52 1249.51C1922.94 1248.27 1922.66 1246.8 1922.66 1245.09C1922.66 1243.22 1922.99 1241.67 1923.65 1240.45C1924.31 1239.24 1925.16 1238.27 1926.21 1237.54C1927.25 1236.82 1928.45 1236.27 1929.79 1235.91C1931.14 1235.55 1932.49 1235.26 1933.86 1235.05C1935.22 1234.83 1936.56 1234.66 1937.89 1234.53C1939.21 1234.41 1940.38 1234.21 1941.41 1233.96C1942.43 1233.7 1943.24 1233.33 1943.84 1232.84C1944.44 1232.35 1944.71 1231.63 1944.67 1230.69C1944.67 1229.71 1944.51 1228.93 1944.19 1228.36C1943.87 1227.78 1943.44 1227.33 1942.91 1227.01C1942.38 1226.69 1941.76 1226.48 1941.06 1226.37C1940.35 1226.27 1939.59 1226.21 1938.78 1226.21C1936.99 1226.21 1935.58 1226.6 1934.56 1227.37C1933.54 1228.13 1932.94 1229.41 1932.77 1231.21L1923.68 1231.21ZM1944.67 1237.93C1944.29 1238.27 1943.81 1238.53 1943.23 1238.73C1942.66 1238.92 1942.04 1239.08 1941.38 1239.21C1940.71 1239.33 1940.02 1239.44 1939.3 1239.53C1938.57 1239.61 1937.84 1239.72 1937.12 1239.85C1936.44 1239.97 1935.76 1240.14 1935.1 1240.36C1934.44 1240.57 1933.87 1240.86 1933.38 1241.22C1932.88 1241.58 1932.49 1242.04 1932.19 1242.6C1931.89 1243.15 1931.74 1243.86 1931.74 1244.71C1931.74 1245.52 1931.89 1246.2 1932.19 1246.76C1932.49 1247.31 1932.9 1247.75 1933.41 1248.07C1933.92 1248.39 1934.52 1248.61 1935.2 1248.74C1935.88 1248.87 1936.59 1248.93 1937.31 1248.93C1939.1 1248.93 1940.49 1248.63 1941.47 1248.04C1942.45 1247.44 1943.18 1246.73 1943.65 1245.89C1944.12 1245.06 1944.4 1244.22 1944.51 1243.37C1944.62 1242.51 1944.67 1241.83 1944.67 1241.32L1944.67 1237.93Z"/>
<path d="M1960.8 1221.03L1960.8 1254.12L1969.89 1254.12L1969.89 1236.77C1969.89 1233.4 1970.44 1230.98 1971.55 1229.51C1972.66 1228.04 1974.45 1227.3 1976.93 1227.3C1979.1 1227.3 1980.62 1227.97 1981.47 1229.32C1982.32 1230.66 1982.75 1232.7 1982.75 1235.43L1982.75 1254.12L1991.84 1254.12L1991.84 1233.77C1991.84 1231.72 1991.66 1229.85 1991.3 1228.17C1990.93 1226.48 1990.3 1225.05 1989.41 1223.88C1988.51 1222.7 1987.28 1221.79 1985.73 1221.13C1984.17 1220.46 1982.18 1220.13 1979.74 1220.13C1977.82 1220.13 1975.95 1220.57 1974.11 1221.45C1972.28 1222.32 1970.78 1223.72 1969.63 1225.64L1969.44 1225.64L1969.44 1221.03L1960.8 1221.03Z"/>
<path d="M2025.89 1215.91L2025.89 1208.42L2016.8 1208.42L2016.8 1215.91L2025.89 1215.91ZM2016.8 1221.03L2016.8 1254.12L2025.89 1254.12L2025.89 1221.03L2016.8 1221.03Z"/>
<path d="M2033.31 1221.03L2033.31 1254.12L2042.4 1254.12L2042.4 1234.92C2042.4 1233.3 2042.63 1231.98 2043.1 1230.98C2043.57 1229.98 2044.14 1229.21 2044.8 1228.68C2045.46 1228.14 2046.14 1227.78 2046.85 1227.59C2047.55 1227.4 2048.12 1227.3 2048.54 1227.3C2049.99 1227.3 2051.09 1227.55 2051.84 1228.04C2052.59 1228.53 2053.12 1229.18 2053.44 1229.99C2053.76 1230.8 2053.94 1231.69 2053.98 1232.65C2054.03 1233.61 2054.05 1234.58 2054.05 1235.56L2054.05 1254.12L2063.14 1254.12L2063.14 1235.69C2063.14 1234.66 2063.21 1233.65 2063.36 1232.65C2063.51 1231.64 2063.81 1230.75 2064.26 1229.96C2064.7 1229.17 2065.32 1228.53 2066.11 1228.04C2066.9 1227.55 2067.94 1227.3 2069.22 1227.3C2070.5 1227.3 2071.51 1227.51 2072.26 1227.94C2073 1228.37 2073.57 1228.94 2073.95 1229.67C2074.34 1230.39 2074.57 1231.25 2074.66 1232.23C2074.74 1233.21 2074.78 1234.26 2074.78 1235.37L2074.78 1254.12L2083.87 1254.12L2083.87 1231.97C2083.87 1229.84 2083.57 1228.02 2082.98 1226.5C2082.38 1224.99 2081.55 1223.76 2080.48 1222.82C2079.41 1221.88 2078.13 1221.2 2076.64 1220.77C2075.15 1220.35 2073.52 1220.13 2071.78 1220.13C2069.47 1220.13 2067.48 1220.69 2065.79 1221.8C2064.11 1222.91 2062.77 1224.19 2061.79 1225.64C2060.9 1223.59 2059.58 1222.16 2057.86 1221.35C2056.13 1220.54 2054.22 1220.13 2052.13 1220.13C2049.95 1220.13 2048.02 1220.6 2046.34 1221.54C2044.65 1222.48 2043.21 1223.8 2042.02 1225.51L2041.89 1225.51L2041.89 1221.03L2033.31 1221.03Z"/>
<path d="M2090.66 1231.21C2090.78 1229.07 2091.32 1227.3 2092.26 1225.89C2093.19 1224.49 2094.39 1223.35 2095.84 1222.5C2097.29 1221.65 2098.92 1221.04 2100.74 1220.68C2102.55 1220.31 2104.37 1220.13 2106.21 1220.13C2107.87 1220.13 2109.56 1220.25 2111.26 1220.49C2112.97 1220.72 2114.53 1221.18 2115.94 1221.86C2117.34 1222.54 2118.5 1223.49 2119.39 1224.71C2120.29 1225.93 2120.74 1227.54 2120.74 1229.54L2120.74 1246.76C2120.74 1248.25 2120.82 1249.68 2120.99 1251.05C2121.16 1252.41 2121.46 1253.43 2121.89 1254.12L2112.67 1254.12C2112.5 1253.61 2112.36 1253.08 2112.26 1252.55C2112.15 1252.02 2112.07 1251.47 2112.03 1250.92C2110.58 1252.41 2108.87 1253.46 2106.91 1254.05C2104.95 1254.65 2102.94 1254.95 2100.9 1254.95C2099.32 1254.95 2097.84 1254.76 2096.48 1254.37C2095.11 1253.99 2093.92 1253.39 2092.9 1252.58C2091.87 1251.77 2091.07 1250.75 2090.5 1249.51C2089.92 1248.27 2089.63 1246.8 2089.63 1245.09C2089.63 1243.22 2089.96 1241.67 2090.62 1240.45C2091.28 1239.24 2092.14 1238.27 2093.18 1237.54C2094.23 1236.82 2095.42 1236.27 2096.77 1235.91C2098.11 1235.55 2099.47 1235.26 2100.83 1235.05C2102.2 1234.83 2103.54 1234.66 2104.86 1234.53C2106.19 1234.41 2107.36 1234.21 2108.38 1233.96C2109.41 1233.7 2110.22 1233.33 2110.82 1232.84C2111.41 1232.35 2111.69 1231.63 2111.65 1230.69C2111.65 1229.71 2111.49 1228.93 2111.17 1228.36C2110.85 1227.78 2110.42 1227.33 2109.89 1227.01C2109.35 1226.69 2108.74 1226.48 2108.03 1226.37C2107.33 1226.27 2106.57 1226.21 2105.76 1226.21C2103.97 1226.21 2102.56 1226.6 2101.54 1227.37C2100.51 1228.13 2099.91 1229.41 2099.74 1231.21L2090.66 1231.21ZM2111.65 1237.93C2111.26 1238.27 2110.78 1238.53 2110.21 1238.73C2109.63 1238.92 2109.01 1239.08 2108.35 1239.21C2107.69 1239.33 2107 1239.44 2106.27 1239.53C2105.55 1239.61 2104.82 1239.72 2104.1 1239.85C2103.41 1239.97 2102.74 1240.14 2102.08 1240.36C2101.42 1240.57 2100.84 1240.86 2100.35 1241.22C2099.86 1241.58 2099.47 1242.04 2099.17 1242.6C2098.87 1243.15 2098.72 1243.86 2098.72 1244.71C2098.72 1245.52 2098.87 1246.2 2099.17 1246.76C2099.47 1247.31 2099.87 1247.75 2100.38 1248.07C2100.9 1248.39 2101.49 1248.61 2102.18 1248.74C2102.86 1248.87 2103.56 1248.93 2104.29 1248.93C2106.08 1248.93 2107.47 1248.63 2108.45 1248.04C2109.43 1247.44 2110.15 1246.73 2110.62 1245.89C2111.09 1245.06 2111.38 1244.22 2111.49 1243.37C2111.59 1242.51 2111.65 1241.83 2111.65 1241.32L2111.65 1237.93Z"/>
<path d="M2143.2 1246.31C2141.79 1246.31 2140.62 1246.01 2139.68 1245.41C2138.74 1244.82 2137.98 1244.05 2137.41 1243.11C2136.83 1242.17 2136.43 1241.11 2136.19 1239.94C2135.96 1238.77 2135.84 1237.58 2135.84 1236.39C2135.84 1235.15 2135.98 1233.97 2136.26 1232.84C2136.53 1231.71 2136.98 1230.7 2137.6 1229.83C2138.22 1228.95 2138.99 1228.26 2139.9 1227.75C2140.82 1227.24 2141.92 1226.98 2143.2 1226.98C2144.69 1226.98 2145.93 1227.26 2146.91 1227.81C2147.89 1228.37 2148.68 1229.11 2149.28 1230.05C2149.88 1230.99 2150.3 1232.07 2150.56 1233.29C2150.82 1234.5 2150.94 1235.79 2150.94 1237.16C2150.94 1238.35 2150.78 1239.49 2150.46 1240.58C2150.14 1241.67 2149.66 1242.64 2149.02 1243.49C2148.38 1244.35 2147.57 1245.03 2146.59 1245.54C2145.61 1246.05 2144.48 1246.31 2143.2 1246.31ZM2159.58 1252.01L2159.58 1221.03L2150.94 1221.03L2150.94 1225.45L2150.82 1225.45C2149.71 1223.53 2148.33 1222.16 2146.69 1221.35C2145.04 1220.54 2143.14 1220.13 2140.96 1220.13C2138.66 1220.13 2136.62 1220.58 2134.85 1221.48C2133.08 1222.37 2131.59 1223.58 2130.4 1225.09C2129.2 1226.61 2128.3 1228.36 2127.68 1230.34C2127.06 1232.33 2126.75 1234.38 2126.75 1236.52C2126.75 1238.78 2127.02 1240.92 2127.55 1242.95C2128.08 1244.98 2128.93 1246.75 2130.08 1248.26C2131.23 1249.78 2132.7 1250.97 2134.5 1251.85C2136.29 1252.72 2138.42 1253.16 2140.9 1253.16C2142.9 1253.16 2144.81 1252.74 2146.62 1251.91C2148.44 1251.08 2149.83 1249.79 2150.82 1248.04L2150.94 1248.04L2150.94 1252.39C2150.99 1254.74 2150.42 1256.68 2149.25 1258.21C2148.07 1259.75 2146.21 1260.52 2143.65 1260.52C2142.03 1260.52 2140.6 1260.19 2139.36 1259.53C2138.12 1258.86 2137.29 1257.68 2136.86 1255.97L2127.84 1255.97C2127.97 1257.85 2128.49 1259.46 2129.41 1260.81C2130.32 1262.15 2131.48 1263.25 2132.86 1264.1C2134.25 1264.95 2135.79 1265.58 2137.47 1265.99C2139.16 1266.39 2140.81 1266.6 2142.43 1266.6C2146.23 1266.6 2149.26 1266.09 2151.52 1265.06C2153.78 1264.04 2155.51 1262.79 2156.7 1261.32C2157.9 1259.85 2158.68 1258.26 2159.04 1256.55C2159.4 1254.84 2159.58 1253.33 2159.58 1252.01Z"/>
<path d="M2189.15 1234.02L2174.37 1234.02C2174.41 1233.38 2174.55 1232.66 2174.78 1231.85C2175.02 1231.03 2175.42 1230.27 2176 1229.54C2176.58 1228.82 2177.34 1228.21 2178.3 1227.72C2179.26 1227.23 2180.47 1226.98 2181.92 1226.98C2184.14 1226.98 2185.79 1227.58 2186.88 1228.77C2187.97 1229.97 2188.72 1231.72 2189.15 1234.02ZM2174.37 1239.78L2198.24 1239.78C2198.41 1237.22 2198.2 1234.77 2197.6 1232.42C2197 1230.07 2196.03 1227.98 2194.69 1226.15C2193.34 1224.31 2191.63 1222.85 2189.54 1221.77C2187.44 1220.68 2184.99 1220.13 2182.18 1220.13C2179.66 1220.13 2177.36 1220.58 2175.3 1221.48C2173.23 1222.37 2171.44 1223.6 2169.95 1225.16C2168.46 1226.71 2167.31 1228.56 2166.5 1230.69C2165.68 1232.83 2165.28 1235.13 2165.28 1237.61C2165.28 1240.17 2165.67 1242.51 2166.46 1244.65C2167.25 1246.78 2168.37 1248.61 2169.82 1250.15C2171.27 1251.69 2173.04 1252.87 2175.14 1253.7C2177.23 1254.53 2179.57 1254.95 2182.18 1254.95C2185.93 1254.95 2189.13 1254.1 2191.78 1252.39C2194.42 1250.68 2196.38 1247.85 2197.66 1243.88L2189.66 1243.88C2189.36 1244.9 2188.55 1245.87 2187.23 1246.79C2185.91 1247.71 2184.33 1248.17 2182.5 1248.17C2179.94 1248.17 2177.97 1247.5 2176.61 1246.18C2175.24 1244.86 2174.5 1242.73 2174.37 1239.78Z"/>
</g>
</g>
</svg>
